<svg xmlns="http://www.w3.org/2000/svg">
<symbol viewBox="0 0 11 11" fill="none" id="instagram">
    <path d="M5.13772 0C2.30132 0 0 2.30117 0 5.13772C0 7.97427 2.30132 10.2754 5.13772 10.2754C7.97427 10.2754 10.2754 7.97427 10.2754 5.13772C10.2754 2.30117 7.97427 0 5.13772 0ZM5.13772 8.47043C3.29761 8.47043 1.80501 6.97799 1.80501 5.13772C1.80501 3.29746 3.29761 1.80501 5.13772 1.80501C6.97799 1.80501 8.47043 3.29746 8.47043 5.13772C8.47043 6.97799 6.97799 8.47043 5.13772 8.47043Z" fill="currentColor"/>

</symbol>

    <symbol viewBox="0 0 20 17" fill="none" id="twitter">
    <path d="M20 1.92375C19.2563 2.25 18.4637 2.46625 17.6375 2.57125C18.4875 2.06375 19.1363 1.26625 19.4412 0.305C18.6488 0.7775 17.7738 1.11125 16.8412 1.2975C16.0887 0.49625 15.0162 0 13.8462 0C11.5763 0 9.74875 1.8425 9.74875 4.10125C9.74875 4.42625 9.77625 4.73875 9.84375 5.03625C6.435 4.87 3.41875 3.23625 1.3925 0.7475C1.03875 1.36125 0.83125 2.06375 0.83125 2.82C0.83125 4.24 1.5625 5.49875 2.6525 6.2275C1.99375 6.215 1.3475 6.02375 0.8 5.7225C0.8 5.735 0.8 5.75125 0.8 5.7675C0.8 7.76 2.22125 9.415 4.085 9.79625C3.75125 9.8875 3.3875 9.93125 3.01 9.93125C2.7475 9.93125 2.4825 9.91625 2.23375 9.86125C2.765 11.485 4.2725 12.6788 6.065 12.7175C4.67 13.8088 2.89875 14.4662 0.98125 14.4662C0.645 14.4662 0.3225 14.4513 0 14.41C1.81625 15.5813 3.96875 16.25 6.29 16.25C13.835 16.25 17.96 10 17.96 4.5825C17.96 4.40125 17.9538 4.22625 17.945 4.0525C18.7588 3.475 19.4425 2.75375 20 1.92375Z" fill="currentColor"/>
    </symbol>

    <symbol viewBox="0 0 10 20" fill="none" id="facebook">
        <path d="M8.175 3.32083H10.0008V0.140833C9.68583 0.0975 8.6025 0 7.34083 0C4.70833 0 2.905 1.65583 2.905 4.69917V7.5H0V11.055H2.905V20H6.46667V11.0558H9.25417L9.69667 7.50083H6.46583V5.05167C6.46667 4.02417 6.74333 3.32083 8.175 3.32083Z" fill="currentColor"/>
    </symbol>

    <symbol viewBox="0 0 20 20" fill="none" id="linkedin">
        <path d="M19.9951 19.9999V19.999H20.0001V12.664C20.0001 9.07569 19.2276 6.31152 15.0326 6.31152C13.0159 6.31152 11.6626 7.41819 11.1101 8.46736H11.0517V6.64652H7.07422V19.999H11.2159V13.3874C11.2159 11.6465 11.5459 9.96319 13.7017 9.96319C15.8259 9.96319 15.8576 11.9499 15.8576 13.499V19.9999H19.9951Z" fill="currentColor"/>
        <path d="M0.329956 6.64746H4.47662V20H0.329956V6.64746Z" fill="currentColor"/>
        <path d="M2.40167 0C1.07583 0 0 1.07583 0 2.40167C0 3.7275 1.07583 4.82583 2.40167 4.82583C3.7275 4.82583 4.80333 3.7275 4.80333 2.40167C4.8025 1.07583 3.72667 0 2.40167 0V0Z" fill="currentColor"/>
    </symbol>

    </svg>